<?xml version="1.0" encoding="utf-8"?>
<!-- Generator: Adobe Illustrator 27.0.0, SVG Export Plug-In . SVG Version: 6.00 Build 0)  -->
<svg version="1.1"
	 id="svg56" xmlns:svg="http://www.w3.org/2000/svg" xmlns:rdf="http://www.w3.org/1999/02/22-rdf-syntax-ns#" xmlns:cc="http://creativecommons.org/ns#" xmlns:inkscape="http://www.inkscape.org/namespaces/inkscape" xmlns:dc="http://purl.org/dc/elements/1.1/" xmlns:sodipodi="http://sodipodi.sourceforge.net/DTD/sodipodi-0.dtd"
	 xmlns="http://www.w3.org/2000/svg" xmlns:xlink="http://www.w3.org/1999/xlink" x="0px" y="0px" viewBox="0 0 987.9 1117.7"
	 style="enable-background:new 0 0 987.9 1117.7;" xml:space="preserve">
<style type="text/css">
	.st0{fill:#FFFFFF;}
	.st1{fill:#8ED6FB;}
	.st2{fill:#1C78C0;}
</style>
<sodipodi:namedview  bordercolor="#666666" borderopacity="1" gridtolerance="10" guidetolerance="10" id="namedview58" inkscape:current-layer="svg56" inkscape:cx="2328.4012" inkscape:cy="431.22766" inkscape:pageopacity="0" inkscape:pageshadow="2" inkscape:window-height="745" inkscape:window-maximized="1" inkscape:window-width="1366" inkscape:window-x="-8" inkscape:window-y="-8" inkscape:zoom="0.18815252" objecttolerance="10" pagecolor="#ffffff" showgrid="false">
	</sodipodi:namedview>
<path id="path48" class="st0" d="M493.9,0l493.9,279.4v558.9l-493.9,279.4L0,838.3V279.4L493.9,0z"/>
<path id="path50" class="st1" d="M899.7,819l-389.4,220.3V867.8l242.6-133.5L899.7,819z M926.3,794.9V334.3l-142.4,82.3v296.1
	L926.3,794.9z M86.7,819l389.4,220.3V867.8L233.3,734.3L86.7,819z M60,794.9V334.3l142.4,82.3v296.1L60,794.9z M76.7,304.4
	L476.1,78.5v165.8L220.2,385.1l-2,1.1L76.7,304.4z M909.6,304.4L510.3,78.5v165.8l255.9,140.6l2,1.1L909.6,304.4z"/>
<path id="path52" class="st2" d="M476.1,828.7L236.6,697V436.2L476,574.4v254.3H476.1z M510.3,828.7l239.4-131.6V436.2L510.3,574.5
	V828.7z M252.8,406.1L493.2,274l240.3,132.1L493.2,544.9L252.8,406.1z"/>
</svg>
